<svg width="845" height="730" viewBox="0 0 845 730" fill="none" xmlns="http://www.w3.org/2000/svg">
<path d="M672.833 365.002C664.751 365.039 657.033 365.728 650.242 366.93C630.236 370.464 626.604 377.862 626.604 391.505V409.523H673.88V415.528H626.604H608.862C595.122 415.528 583.091 423.787 579.328 439.497C574.987 457.505 574.795 468.742 579.328 487.544C582.689 501.54 590.714 511.513 604.454 511.513H620.708V489.914C620.708 474.309 634.209 460.545 650.242 460.545H697.463C710.607 460.545 721.101 449.722 721.101 436.522V391.505C721.101 378.693 710.292 369.068 697.463 366.93C689.341 365.578 680.915 364.964 672.833 365.002ZM647.267 379.493C652.15 379.493 656.138 383.546 656.138 388.529C656.138 393.495 652.15 397.511 647.267 397.511C642.366 397.511 638.395 393.495 638.395 388.529C638.395 383.546 642.366 379.493 647.267 379.493Z" fill="url(#paint0_linear_13:941)"/>
<path d="M726.996 415.528V436.521C726.996 452.797 713.198 466.496 697.463 466.496H650.242C637.307 466.496 626.604 477.566 626.604 490.52V535.536C626.604 548.348 637.745 555.884 650.242 559.56C665.207 563.96 679.557 564.756 697.463 559.56C709.365 556.114 721.101 549.179 721.101 535.536V517.519H673.88V511.513H721.101H744.739C758.478 511.513 763.598 501.929 768.376 487.544C773.312 472.735 773.102 458.494 768.376 439.497C764.981 425.819 758.496 415.528 744.739 415.528H726.996ZM700.438 529.53C705.339 529.53 709.309 533.546 709.309 538.512C709.309 543.495 705.339 547.548 700.438 547.548C695.555 547.548 691.567 543.495 691.567 538.512C691.567 533.546 695.555 529.53 700.438 529.53Z" fill="url(#paint1_linear_13:941)"/>
<path d="M309.188 132.188H633.812V456.812H309.188V132.188Z" fill="#F5DE19"/>
<path d="M527.254 385.8C530.02 391.418 534.317 396.14 539.65 399.422C544.984 402.704 551.136 404.412 557.398 404.35C570.035 404.35 578.116 398.031 578.116 389.278C578.116 378.843 569.815 375.11 555.902 369.023L548.273 365.754C526.245 356.375 511.637 344.63 511.637 319.796C511.637 296.922 529.028 279.497 556.308 279.497C565.139 278.859 573.962 280.835 581.677 285.179C589.392 289.523 595.658 296.043 599.692 303.925L575.843 319.17C574.29 315.262 571.585 311.919 568.088 309.583C564.591 307.248 560.467 306.03 556.262 306.093C554.427 305.909 552.574 306.109 550.821 306.681C549.069 307.253 547.454 308.184 546.081 309.414C544.708 310.645 543.606 312.148 542.846 313.827C542.085 315.507 541.683 317.327 541.665 319.17C541.665 328.318 547.334 332.028 560.424 337.72L568.052 340.99C593.976 352.108 608.631 363.435 608.631 388.907C608.631 416.372 587.055 431.421 558.082 431.421C546.793 432.14 535.537 429.577 525.673 424.041C515.808 418.505 507.757 410.233 502.49 400.222L527.254 385.8ZM419.49 388.443C424.278 396.941 428.638 404.129 439.118 404.129C449.135 404.129 455.465 400.211 455.465 384.965V281.236H485.969V385.371C485.969 416.952 467.419 431.328 440.417 431.328C430.872 431.85 421.393 429.471 413.226 424.505C405.058 419.539 398.585 412.217 394.656 403.503L419.49 388.443Z" fill="black"/>
<g clip-path="url(#clip0_13:941)">
<path d="M330.713 72.8525C328.025 71.93 325.314 71.0755 322.582 70.2896C323.041 68.4146 323.463 66.5623 323.838 64.7426C329.994 34.86 325.97 10.786 312.224 2.8597C299.045 -4.73899 277.491 3.18437 255.723 22.1288C253.578 23.9992 251.48 25.9235 249.432 27.8998C248.061 26.5856 246.666 25.2969 245.247 24.0344C222.433 3.77845 199.566 -4.75872 185.835 3.19029C172.668 10.8127 168.769 33.4439 174.311 61.7643C174.862 64.5691 175.485 67.3595 176.178 70.1327C172.941 71.0525 169.818 72.0314 166.829 73.0735C140.081 82.3992 123 97.0133 123 112.172C123 127.828 141.338 143.532 169.196 153.054C171.455 153.823 173.732 154.535 176.026 155.191C175.281 158.177 174.62 161.185 174.042 164.208C168.759 192.037 172.885 214.134 186.017 221.708C199.58 229.529 222.344 221.491 244.51 202.114C246.307 200.539 248.065 198.919 249.782 197.256C252 199.396 254.277 201.474 256.611 203.487C278.082 221.962 299.288 229.423 312.407 221.828C325.957 213.984 330.361 190.246 324.643 161.366C324.193 159.104 323.688 156.852 323.129 154.614C324.727 154.141 326.296 153.653 327.826 153.146C356.788 143.551 375.632 128.038 375.632 112.172C375.632 96.958 357.999 82.2452 330.713 72.8525V72.8525ZM324.432 142.902C323.051 143.359 321.634 143.8 320.189 144.23C316.991 134.108 312.677 123.345 307.396 112.224C312.435 101.369 316.584 90.7439 319.691 80.688C322.276 81.436 324.784 82.2245 327.201 83.0564C350.58 91.1051 364.839 103.003 364.839 112.172C364.839 121.938 349.439 134.616 324.432 142.902V142.902ZM314.057 163.462C316.585 176.232 316.945 187.778 315.27 196.805C313.766 204.916 310.741 210.323 306.999 212.489C299.038 217.097 282.012 211.107 263.65 195.306C261.479 193.434 259.361 191.502 257.297 189.513C264.416 181.728 271.531 172.677 278.474 162.625C290.687 161.542 302.225 159.77 312.689 157.351C313.204 159.43 313.662 161.469 314.057 163.462V163.462ZM209.128 211.692C201.349 214.439 195.154 214.518 191.409 212.358C183.44 207.763 180.127 190.02 184.646 166.222C185.183 163.409 185.798 160.613 186.49 157.834C196.838 160.124 208.293 161.77 220.535 162.763C227.525 172.599 234.845 181.639 242.221 189.555C240.654 191.072 239.049 192.55 237.409 193.988C227.606 202.556 217.784 208.635 209.128 211.692V211.692ZM172.687 142.842C160.369 138.631 150.195 133.159 143.222 127.188C136.956 121.823 133.793 116.495 133.793 112.172C133.793 102.973 147.507 91.2393 170.381 83.2646C173.157 82.2975 176.063 81.3847 179.077 80.5281C182.239 90.811 186.386 101.563 191.39 112.435C186.321 123.468 182.115 134.391 178.922 144.795C176.828 144.195 174.749 143.544 172.687 142.842V142.842ZM184.903 59.6909C180.155 35.4275 183.308 17.1245 191.243 12.5307C199.694 7.63799 218.383 14.614 238.082 32.1048C239.366 33.2479 240.63 34.4142 241.872 35.6031C234.532 43.485 227.28 52.4584 220.351 62.236C208.469 63.3373 197.096 65.1057 186.639 67.4752C185.995 64.8958 185.416 62.3005 184.903 59.6919V59.6909ZM293.877 86.6002C291.407 82.334 288.845 78.1215 286.194 73.9656C294.255 74.985 301.978 76.338 309.23 77.9919C307.053 84.9709 304.339 92.2666 301.145 99.7469C298.81 95.3167 296.387 90.9336 293.877 86.6002V86.6002ZM249.437 43.3163C254.415 48.7094 259.4 54.7301 264.304 61.263C254.357 60.7932 244.393 60.7912 234.445 61.2571C239.354 54.7844 244.382 48.7715 249.437 43.3163ZM204.713 86.6742C202.234 90.9727 199.856 95.3285 197.581 99.738C194.438 92.2844 191.749 84.9551 189.554 77.8775C196.762 76.265 204.448 74.9465 212.457 73.9459C209.776 78.1271 207.194 82.3707 204.713 86.6732V86.6742ZM212.687 151.166C204.413 150.243 196.611 148.992 189.405 147.423C191.635 140.219 194.383 132.734 197.593 125.121C199.878 129.533 202.266 133.892 204.755 138.192C207.315 142.613 209.965 146.944 212.687 151.166ZM249.735 181.788C244.619 176.27 239.517 170.164 234.535 163.598C239.372 163.787 244.304 163.884 249.316 163.884C254.465 163.884 259.555 163.768 264.565 163.545C259.646 170.23 254.679 176.345 249.735 181.788ZM301.246 124.732C304.623 132.429 307.469 139.875 309.729 146.955C302.405 148.627 294.496 149.973 286.163 150.973C288.834 146.74 291.419 142.454 293.919 138.118C296.461 133.711 298.904 129.248 301.246 124.732V124.732ZM284.571 132.726C280.744 139.374 276.702 145.895 272.451 152.28C264.752 152.826 257.035 153.097 249.316 153.093C241.454 153.093 233.807 152.848 226.443 152.37C222.081 146 217.962 139.467 214.094 132.785H214.095C210.246 126.139 206.65 119.349 203.316 112.43C206.642 105.509 210.227 98.7156 214.063 92.0643L214.062 92.0653C217.897 85.4122 221.983 78.9072 226.312 72.5643C233.824 71.9959 241.529 71.6998 249.315 71.6998H249.316C257.137 71.6998 264.852 71.9988 272.363 72.5712C276.647 78.9046 280.708 85.3873 284.535 92.0071C288.384 98.6438 292.016 105.404 295.426 112.277C292.051 119.22 288.431 126.041 284.571 132.726V132.726ZM306.834 12.209C315.293 17.088 318.583 36.7627 313.268 62.5636C312.929 64.2097 312.548 65.8863 312.133 67.5867C301.651 65.1669 290.27 63.3679 278.354 62.2498C271.412 52.3646 264.219 43.3775 256.998 35.5972C258.891 33.773 260.828 31.9962 262.809 30.2683C281.46 14.0377 298.892 7.6291 306.834 12.209V12.209ZM249.316 89.613C261.775 89.613 271.875 99.7133 271.875 112.172C271.875 124.631 261.775 134.731 249.316 134.731C236.857 134.731 226.757 124.631 226.757 112.172C226.757 99.7133 236.857 89.613 249.316 89.613V89.613Z" fill="#00D8FF"/>
</g>
<path d="M432.798 673.887C454.204 673.887 471.58 656.51 471.58 635.105V596.323H432.798C411.393 596.323 394.016 613.7 394.016 635.105C394.016 656.51 411.393 673.887 432.798 673.887Z" fill="#0ACF83"/>
<path d="M393.976 557.499C393.976 536.094 411.352 518.717 432.758 518.717H471.539V596.322H432.758C411.352 596.322 393.976 578.945 393.976 557.54V557.499Z" fill="#A259FF"/>
<path d="M393.976 479.895C393.976 458.49 411.352 441.113 432.758 441.113H471.539V518.718H432.758C411.352 518.718 393.976 501.341 393.976 479.936V479.895Z" fill="#F24E1E"/>
<path d="M471.214 441.113H509.996C531.401 441.113 548.777 458.49 548.777 479.895C548.777 501.3 531.401 518.677 509.996 518.677H471.214V441.113Z" fill="#FF7262"/>
<path d="M549.184 557.499C549.184 578.904 531.808 596.281 510.403 596.281C488.997 596.281 471.214 578.904 471.214 557.499C471.214 536.094 488.59 518.717 509.996 518.717C531.401 518.717 548.777 536.094 548.777 557.499H549.184Z" fill="#1ABCFE"/>
<path d="M376.348 304.886C369.822 304.923 364.172 306.49 359.432 308.825C357.681 305.36 355.93 302.336 355.639 300.076C355.312 297.451 354.909 295.847 355.312 292.71C355.714 289.574 357.537 285.126 357.537 284.764C357.5 284.436 357.139 282.832 353.38 282.794C349.62 282.757 346.377 283.524 346.014 284.533C345.364 286.353 344.84 288.217 344.447 290.11C343.792 293.537 336.938 305.681 333.036 312.058C331.76 309.58 330.667 307.389 330.449 305.641C330.121 303.016 329.718 301.412 330.121 298.275C330.523 295.139 332.346 290.691 332.346 290.329C332.309 290.001 331.948 288.397 328.189 288.359C324.429 288.322 321.186 289.09 320.823 290.098C320.461 291.106 320.058 293.416 319.259 295.675C318.494 297.91 309.38 318.207 307.008 323.489C305.806 326.186 304.773 328.339 303.979 329.796C303.184 331.254 303.941 329.906 303.869 330.052L302.851 331.984V332.021C302.34 332.933 301.793 333.809 301.535 333.809C301.354 333.809 300.989 331.366 301.61 328.013C302.958 320.978 306.239 310.004 306.204 309.602C306.204 309.421 306.825 307.491 304.093 306.503C301.431 305.519 300.485 307.158 300.269 307.158C300.053 307.158 299.871 307.742 299.871 307.742C299.871 307.742 302.826 295.382 294.219 295.382C288.823 295.382 281.385 301.253 277.705 306.612L259.112 316.784L258.715 316.347C248.285 305.226 229.002 297.349 229.804 282.404C230.095 276.973 231.989 262.645 266.845 245.291C295.391 231.074 318.25 234.973 322.224 243.652C327.876 256.044 310.011 279.089 280.335 282.407C269.036 283.683 263.091 279.308 261.596 277.669C260.031 275.93 259.808 275.881 259.227 276.211C258.278 276.723 258.862 278.252 259.227 279.166C260.101 281.463 263.746 285.548 269.945 287.585C275.376 289.373 288.644 290.356 304.686 284.158C322.648 277.117 336.684 257.822 332.567 241.668C328.37 225.226 301.103 219.832 275.326 228.983C259.979 234.454 243.356 242.982 231.396 254.171C217.179 267.442 214.916 279.035 215.865 283.847C219.183 301.02 242.844 312.212 252.32 320.486L251.004 321.216C246.266 323.551 228.22 332.992 223.698 342.98C218.594 354.28 224.5 362.412 228.436 363.505C240.611 366.895 253.08 360.808 259.825 350.781C266.53 340.755 265.73 327.74 262.631 321.8L262.522 321.582L266.239 319.396C268.501 318.068 270.786 316.78 273.093 315.532C271.926 318.703 271.089 322.461 270.65 327.924C270.138 334.341 272.761 342.65 276.227 345.933C277.76 347.356 279.58 347.391 280.712 347.391C284.723 347.391 286.548 344.073 288.55 340.1C291.028 335.25 293.218 329.637 293.218 329.637C293.218 329.637 290.487 344.84 297.957 344.84C300.688 344.84 303.425 341.304 304.662 339.481V339.519C304.662 339.519 304.736 339.409 304.88 339.154C305.171 338.717 305.317 338.458 305.317 338.458V338.384C306.41 336.489 308.853 332.175 312.499 324.966C317.202 315.703 321.722 304.114 321.722 304.114C321.722 304.114 322.159 306.957 323.51 311.623C324.312 314.395 326.063 317.419 327.409 320.372L325.658 322.781L325.695 322.818C324.821 323.985 323.833 325.227 322.815 326.464C319.097 330.909 314.65 335.98 314.066 337.44C313.371 339.178 313.52 340.43 314.868 341.451C315.852 342.181 317.6 342.325 319.462 342.181C322.815 341.962 325.174 341.123 326.316 340.616C328.421 339.866 330.409 338.823 332.222 337.517C335.867 334.82 338.092 330.991 337.874 325.888C337.764 323.081 336.856 320.31 335.723 317.685L336.707 316.227C342.468 307.809 346.913 298.546 346.913 298.546C346.913 298.546 347.35 301.39 348.701 306.056C349.396 308.425 350.78 311.015 352.019 313.565C346.622 317.976 343.233 323.081 342.066 326.434C339.915 332.632 341.594 335.439 344.762 336.119C346.185 336.409 348.227 335.754 349.754 335.101C351.649 334.48 353.946 333.425 356.062 331.855C359.707 329.158 363.206 325.403 363.025 320.332C362.916 317.998 362.295 315.703 361.46 313.516C366.055 311.621 371.997 310.526 379.544 311.437C395.768 313.332 398.976 323.469 398.355 327.698C397.734 331.927 394.345 334.261 393.215 334.989C392.085 335.684 391.72 335.938 391.829 336.447C391.978 337.212 392.485 337.177 393.468 337.03C394.817 336.812 401.998 333.566 402.291 325.766C402.728 315.741 393.212 304.807 376.333 304.913L376.348 304.886ZM251.23 347.065C245.871 352.936 238.324 355.161 235.113 353.264C231.649 351.26 233.003 342.618 239.598 336.385C243.609 332.593 248.821 329.094 252.248 326.943L255.566 324.939C255.785 324.79 255.931 324.72 255.931 324.72C256.187 324.571 256.478 324.393 256.771 324.209C259.214 333.104 256.88 340.907 251.233 347.068L251.23 347.065ZM290.422 320.414C288.56 324.971 284.626 336.675 282.257 336.017C280.216 335.471 278.979 326.61 281.86 317.864C283.317 313.454 286.417 308.179 288.242 306.16C291.197 302.882 294.4 301.784 295.205 303.135C296.154 304.886 291.597 317.573 290.43 320.419L290.422 320.414ZM322.758 335.873C321.956 336.27 321.225 336.568 320.895 336.345C320.639 336.196 321.223 335.65 321.223 335.65C321.223 335.65 325.271 331.311 326.875 329.307L330.046 325.259V325.696C330.046 330.946 325.015 334.445 322.755 335.868L322.758 335.873ZM347.695 330.161C347.112 329.724 347.184 328.373 349.153 324.147C349.918 322.471 351.669 319.662 354.691 317.002C355.056 318.095 355.274 319.153 355.237 320.139C355.2 326.702 350.534 329.143 347.688 330.164L347.695 330.161Z" fill="#CF649A"/>
<path d="M698.568 125.892L619.105 46.4337C614.531 41.8574 607.109 41.8574 602.53 46.4337L586.029 62.9346L606.961 83.8667C611.825 82.223 617.403 83.3257 621.281 87.2031C625.177 91.1054 626.272 96.7311 624.588 101.611L644.761 121.785C649.642 120.103 655.273 121.191 659.171 125.095C664.619 130.541 664.619 139.367 659.171 144.817C653.722 150.267 644.895 150.267 639.443 144.817C635.345 140.715 634.333 134.697 636.407 129.648L617.595 110.835L617.593 160.343C618.956 161.017 620.202 161.908 621.281 162.981C626.729 168.426 626.729 177.253 621.281 182.707C615.832 188.154 607.001 188.154 601.559 182.707C596.112 177.253 596.112 168.427 601.559 162.981C602.865 161.675 604.417 160.641 606.124 159.938V109.969C604.414 109.271 602.862 108.236 601.559 106.925C597.432 102.803 596.439 96.7467 598.554 91.6785L577.92 71.0421L523.434 125.525C518.855 130.105 518.855 137.528 523.434 142.105L602.898 221.565C607.473 226.142 614.894 226.142 619.474 221.565L698.567 142.474C703.144 137.896 703.144 130.469 698.567 125.892" fill="#DE4C36"/>
<path d="M45.9509 535.777L28.4566 339.571H220.684L203.166 535.746L124.454 557.569L45.9509 535.777Z" fill="#E44F26"/>
<path d="M124.57 540.893L188.179 523.259L203.143 355.618H124.57V540.893Z" fill="#F1662A"/>
<path d="M124.57 428.381H92.7269L90.5314 403.74H124.57V379.674H64.2315L64.8076 386.136L70.7169 452.447H124.57V428.381V428.381Z" fill="#EBEBEB"/>
<path d="M124.57 490.877L124.461 490.908L97.6629 483.675L95.95 464.484H71.7912L75.1624 502.26L124.461 515.947L124.57 515.916V490.877Z" fill="#EBEBEB"/>
<path d="M124.485 428.384V452.45H154.117L151.33 483.662L124.485 490.903V515.942L173.822 502.262L174.18 498.198L179.833 434.846L180.424 428.384H124.485V428.384Z" fill="white"/>
<path d="M124.485 379.674V403.74H182.612L183.095 398.336L184.193 386.136L184.769 379.674H124.485V379.674Z" fill="white"/>
<path d="M184.925 616.658L167.448 420.562H359.552L342.052 616.627L263.383 638.438L184.925 616.658Z" fill="#1572B6"/>
<path d="M263.5 621.771L327.073 604.146L342.028 436.6H263.5V621.771Z" fill="#33A9DC"/>
<path d="M263.5 507.643H295.325L297.52 483.015H263.5V458.963H323.805L323.229 465.414L317.323 531.695H263.5V507.643V507.643Z" fill="white"/>
<path d="M263.648 570.104L263.539 570.135L236.756 562.898L235.044 543.717H210.899L214.268 581.48L263.531 595.159L263.648 595.128V570.104V570.104Z" fill="#EBEBEB"/>
<path d="M293.279 530.674L290.384 562.88L263.562 570.117V595.141L312.864 581.478L313.23 577.416L317.408 530.674H293.279V530.674Z" fill="white"/>
<path d="M263.586 458.963V483.015H205.491L205.008 477.607L203.911 465.414L203.335 458.963H263.586V458.963Z" fill="#EBEBEB"/>
<path d="M263.5 507.642V531.693H237.052L236.569 526.285L235.48 514.092L234.904 507.642H263.5V507.642Z" fill="#EBEBEB"/>
<defs>
<linearGradient id="paint0_linear_13:941" x1="576" y1="365" x2="685.013" y2="457.894" gradientUnits="userSpaceOnUse">
<stop stop-color="#5A9FD4"/>
<stop offset="1" stop-color="#306998"/>
</linearGradient>
<linearGradient id="paint1_linear_13:941" x1="699.302" y1="536.997" x2="660.192" y2="482.193" gradientUnits="userSpaceOnUse">
<stop stop-color="#FFD43B"/>
<stop offset="1" stop-color="#FFE873"/>
</linearGradient>
<clipPath id="clip0_13:941">
<rect width="252.632" height="225" fill="white" transform="translate(123)"/>
</clipPath>
</defs>
</svg>
