<svg width="1027" height="930" viewBox="0 0 1027 930" fill="none" xmlns="http://www.w3.org/2000/svg">
<path d="M5 925L5 125H488.601L605 125V238V925H5Z" fill="black" stroke="#007ACC" stroke-width="10"/>
<path d="M103 200L53 250L103 300" stroke="white" stroke-width="10"/>
<path d="M143 300L193 250L143 200" stroke="white" stroke-width="10"/>
<path d="M465 348H53V388H465V348Z" fill="white"/>
<path d="M465 436H53V476H465V436Z" fill="white"/>
<path d="M397 524H53V564H397V524Z" fill="white"/>
<path d="M442 612H53V652H442V612Z" fill="white"/>
<path d="M419 700H53V740H419V700Z" fill="white"/>
<path d="M103 788L53 838L103 888" stroke="white" stroke-width="10"/>
<path d="M205 788L135 888" stroke="white" stroke-width="10"/>
<path d="M237 888L287 838L237 788" stroke="white" stroke-width="10"/>
<path d="M478 426H66V466H478V426Z" fill="#007ACC"/>
<path d="M478 513H66V553H478V513Z" fill="#007ACC"/>
<path d="M422 805V5H905.601L963.801 61.5L1022 118V805H422Z" fill="black" stroke="#007ACC" stroke-width="10"/>
<path d="M868 76H470V118H868V76Z" fill="white"/>
<path d="M869 150H470V193H869V150Z" fill="white"/>
<path d="M818 225H470V507H818V225Z" fill="white"/>
<path d="M848 539H470V582H848V539Z" fill="white"/>
<path d="M972 614H470V657H972V614Z" fill="white"/>
<path d="M972 689H470V732H972V689Z" fill="white"/>
<path d="M888 65H490V107H888V65Z" fill="#007ACC"/>
<path d="M838 203H490V485H838V203Z" fill="#007ACC"/>
<path d="M909 118V18L1012 118H909Z" fill="#007ACC" stroke="#007ACC" stroke-width="10"/>
<path d="M422 805V5H905.601L963.801 61.5L1022 118V805H422Z" fill="black" stroke="#007ACC" stroke-width="10"/>
<path d="M868 76H470V118H868V76Z" fill="white"/>
<path d="M869 150H470V193H869V150Z" fill="white"/>
<path d="M818 225H470V507H818V225Z" fill="white"/>
<path d="M848 539H470V582H848V539Z" fill="white"/>
<path d="M972 614H470V657H972V614Z" fill="white"/>
<path d="M972 689H470V732H972V689Z" fill="white"/>
<path d="M888 65H490V107H888V65Z" fill="#007ACC"/>
<path d="M838 203H490V485H838V203Z" fill="#007ACC"/>
<path d="M909 118V18L1012 118H909Z" fill="#007ACC" stroke="#007ACC" stroke-width="10"/>
<path d="M422 805V5H905.601L963.801 61.5L1022 118V805H422Z" fill="black" stroke="#007ACC" stroke-width="10"/>
<path d="M868 76H470V118H868V76Z" fill="white"/>
<path d="M869 150H470V193H869V150Z" fill="white"/>
<path d="M818 225H470V507H818V225Z" fill="white"/>
<path d="M848 539H470V582H848V539Z" fill="white"/>
<path d="M972 614H470V657H972V614Z" fill="white"/>
<path d="M972 689H470V732H972V689Z" fill="white"/>
<path d="M888 65H490V107H888V65Z" fill="#007ACC"/>
<path d="M830 212H482V494H830V212Z" fill="#007ACC"/>
<path d="M909 118V18L1012 118H909Z" fill="#007ACC" stroke="#007ACC" stroke-width="10"/>
</svg>
